G04*
G04 #@! TF.GenerationSoftware,Altium Limited,Altium Designer,19.1.5 (86)*
G04*
G04 Layer_Physical_Order=1*
G04 Layer_Color=255*
%FSLAX25Y25*%
%MOIN*%
G70*
G01*
G75*
%ADD11C,0.01968*%
%ADD12C,0.00787*%
%ADD22R,0.07874X0.07874*%
%ADD23R,0.07874X0.02362*%
%ADD24R,0.03543X0.03543*%
%ADD25R,0.03543X0.03543*%
%ADD26C,0.01181*%
%ADD27C,0.01575*%
%ADD28C,0.06299*%
%ADD29R,0.06299X0.06299*%
%ADD30C,0.02756*%
G36*
X146172Y115603D02*
X145135Y114567D01*
X141830D01*
Y111261D01*
X137018Y106450D01*
X136801Y106124D01*
X136724Y105740D01*
Y105565D01*
X134517Y103358D01*
X134055Y103549D01*
Y103803D01*
X129921D01*
Y102425D01*
X132931D01*
X133122Y101963D01*
X132324Y101165D01*
X124803D01*
Y97622D01*
X133858D01*
Y99861D01*
X138438Y104440D01*
X138655Y104765D01*
X138732Y105149D01*
Y105324D01*
X143249Y109842D01*
X146555D01*
Y113147D01*
X147758Y114351D01*
X148917D01*
Y109842D01*
X148917D01*
X148794Y109393D01*
X147366D01*
X146982Y109317D01*
X146657Y109099D01*
X145037Y107480D01*
X141732D01*
Y104175D01*
X137150Y99592D01*
X136932Y99266D01*
X136855Y98882D01*
Y98022D01*
X134358Y95525D01*
X133858Y95707D01*
Y96165D01*
X124803D01*
Y92622D01*
X133858D01*
Y93390D01*
X134646D01*
X135030Y93466D01*
X135355Y93684D01*
X138569Y96897D01*
X138786Y97223D01*
X138863Y97607D01*
Y98467D01*
X143151Y102756D01*
X146457D01*
Y106061D01*
X147782Y107386D01*
X148819D01*
Y103059D01*
X148819Y102756D01*
X148400Y102559D01*
X147618D01*
X147234Y102482D01*
X146909Y102265D01*
X145037Y100393D01*
X141732D01*
Y97088D01*
X135041Y90397D01*
X133858D01*
Y91165D01*
X124803D01*
Y87622D01*
X133858D01*
Y88390D01*
X135457D01*
X135841Y88466D01*
X136166Y88684D01*
X143151Y95669D01*
X146457D01*
Y98974D01*
X148034Y100551D01*
X148384D01*
X148819Y100393D01*
X148819Y100051D01*
Y95897D01*
X148819Y95669D01*
X148432Y95397D01*
X147543D01*
X147159Y95320D01*
X146834Y95103D01*
X145037Y93307D01*
X141732D01*
Y90002D01*
X137127Y85397D01*
X133858D01*
Y86165D01*
X124803D01*
Y82622D01*
X133858D01*
Y83390D01*
X137543D01*
X137927Y83466D01*
X138253Y83684D01*
X143151Y88582D01*
X146457D01*
Y91888D01*
X147959Y93390D01*
X148353D01*
X148819Y93307D01*
X148819Y92890D01*
X148819Y88582D01*
X148392Y88405D01*
X147638D01*
X147254Y88329D01*
X146928Y88111D01*
X145037Y86220D01*
X141732D01*
Y82915D01*
X139214Y80397D01*
X133858D01*
Y81165D01*
X124803D01*
Y77622D01*
X133858D01*
Y78390D01*
X139630D01*
X140014Y78466D01*
X140339Y78684D01*
X143151Y81496D01*
X146457D01*
Y84801D01*
X148054Y86398D01*
X148392D01*
X148819Y86220D01*
X148819Y85898D01*
X148819Y81496D01*
X148392Y81318D01*
X147638D01*
X147254Y81242D01*
X146928Y81024D01*
X145037Y79134D01*
X141732D01*
Y75828D01*
X141301Y75397D01*
X133858D01*
Y76165D01*
X124803D01*
Y72622D01*
X133858D01*
Y73390D01*
X141716D01*
X142100Y73466D01*
X142426Y73684D01*
X143151Y74409D01*
X146381D01*
X146658Y73992D01*
X146576Y73938D01*
X144685Y72047D01*
X141732D01*
Y70688D01*
X133858D01*
Y71165D01*
X124803D01*
Y67622D01*
X133858D01*
Y68681D01*
X141732D01*
Y67323D01*
X146457D01*
Y70980D01*
X147701Y72225D01*
X148392D01*
X148819Y72047D01*
X148819Y71725D01*
X148819Y67323D01*
X148392Y67145D01*
X147638D01*
X147254Y67069D01*
X146928Y66851D01*
X145037Y64960D01*
X141732D01*
Y64783D01*
X133858D01*
Y66165D01*
X124803D01*
Y62622D01*
X133858D01*
Y62776D01*
X141732D01*
Y60236D01*
X146457D01*
Y63541D01*
X148054Y65138D01*
X148392D01*
X148819Y64960D01*
X148819Y64638D01*
X148819Y60236D01*
X148392Y60059D01*
X147638D01*
X147254Y59982D01*
X146928Y59765D01*
X145037Y57874D01*
X141732D01*
Y54569D01*
X137101Y49937D01*
X136883Y49611D01*
X136807Y49227D01*
Y48722D01*
X134517Y46432D01*
X134055Y46623D01*
Y46716D01*
X129921D01*
Y45338D01*
X132770D01*
X132961Y44876D01*
X132164Y44078D01*
X124803D01*
Y40535D01*
X133858D01*
Y42935D01*
X138520Y47596D01*
X138737Y47922D01*
X138814Y48306D01*
Y48812D01*
X143151Y53149D01*
X146457D01*
Y56455D01*
X148054Y58052D01*
X148392D01*
X148819Y57874D01*
X148819Y57551D01*
X148819Y53149D01*
X148392Y52972D01*
X147638D01*
X147254Y52896D01*
X146928Y52678D01*
X145037Y50787D01*
X141732D01*
Y47482D01*
X133443Y39193D01*
X132969D01*
X132585Y39116D01*
X132528Y39078D01*
X124803D01*
Y35535D01*
X133858D01*
Y37185D01*
X133859D01*
X134242Y37262D01*
X134568Y37479D01*
X143151Y46063D01*
X146457D01*
Y49368D01*
X148054Y50965D01*
X148392D01*
X148819Y50787D01*
X148819Y50465D01*
X148819Y46063D01*
X148392Y45885D01*
X147638D01*
X147254Y45809D01*
X146928Y45591D01*
X145037Y43701D01*
X141732D01*
Y40395D01*
X134647Y33310D01*
X133858D01*
Y34078D01*
X124803D01*
Y30535D01*
X133858D01*
Y31303D01*
X135063D01*
X135447Y31380D01*
X135772Y31597D01*
X143151Y38976D01*
X146457D01*
Y42281D01*
X148054Y43878D01*
X148392D01*
X148819Y43701D01*
X148819Y43378D01*
X148819Y38976D01*
X148392Y38799D01*
X147638D01*
X147254Y38722D01*
X146928Y38505D01*
X145037Y36614D01*
X141732D01*
Y33309D01*
X136734Y28310D01*
X133858D01*
Y29078D01*
X124803D01*
Y25535D01*
X133858D01*
Y26303D01*
X137150D01*
X137533Y26380D01*
X137859Y26597D01*
X143151Y31890D01*
X146457D01*
Y35195D01*
X148054Y36792D01*
X148392D01*
X148819Y36614D01*
X148819Y36292D01*
X148819Y31890D01*
X148392Y31712D01*
X147638D01*
X147254Y31636D01*
X146928Y31418D01*
X145037Y29527D01*
X141732D01*
Y26222D01*
X138820Y23310D01*
X133858D01*
Y24078D01*
X124803D01*
Y20535D01*
X133858D01*
Y21303D01*
X139236D01*
X139620Y21380D01*
X139946Y21597D01*
X143151Y24803D01*
X146457D01*
Y28108D01*
X148054Y29705D01*
X148392D01*
X148819Y29527D01*
X148819Y29205D01*
X148819Y24803D01*
X148392Y24625D01*
X147638D01*
X147254Y24549D01*
X146928Y24332D01*
X145037Y22441D01*
X141732D01*
Y19136D01*
X140907Y18310D01*
X133858D01*
Y19078D01*
X124803D01*
Y15535D01*
X133858D01*
Y16303D01*
X141323D01*
X141707Y16380D01*
X142032Y16597D01*
X143151Y17716D01*
X146457D01*
Y21022D01*
X148054Y22618D01*
X148392D01*
X148819Y22441D01*
X148819Y22118D01*
X148819Y17716D01*
X148392Y17539D01*
X147638D01*
X147254Y17463D01*
X146928Y17245D01*
X145037Y15354D01*
X141732D01*
Y13310D01*
X133858D01*
Y14078D01*
X124803D01*
Y10535D01*
X133858D01*
Y11303D01*
X141732D01*
Y10630D01*
X146457D01*
Y13935D01*
X148054Y15532D01*
X148392D01*
X148819Y15354D01*
X148819Y15032D01*
X148819Y10630D01*
X148392Y10452D01*
X147736D01*
X147352Y10376D01*
X147026Y10158D01*
X145135Y8268D01*
X143006D01*
X142791Y8310D01*
X133858D01*
Y9078D01*
X124803D01*
Y5535D01*
X133858D01*
Y6303D01*
X141830D01*
Y3763D01*
X55578D01*
X47205Y12136D01*
Y17913D01*
X39724D01*
Y10433D01*
X45502D01*
X53466Y2469D01*
X53274Y2007D01*
X2007D01*
Y116103D01*
X125967D01*
X126419Y115986D01*
Y115229D01*
X123128D01*
X123128Y115229D01*
X122513Y115107D01*
X121993Y114759D01*
X121993Y114759D01*
X117762Y110529D01*
X117674Y110397D01*
X95669D01*
Y111165D01*
X86614D01*
Y107622D01*
X95669D01*
Y108390D01*
X117292D01*
Y62205D01*
X117292Y62205D01*
X117414Y61590D01*
X117762Y61069D01*
X120106Y58726D01*
X120193Y58287D01*
X120628Y57636D01*
X121279Y57201D01*
X121718Y57113D01*
X121915Y56916D01*
X121915Y56916D01*
X122436Y56568D01*
X123051Y56446D01*
X123051Y56446D01*
X126419D01*
Y55689D01*
X128127D01*
Y54078D01*
X124803D01*
Y53310D01*
X95669D01*
Y54078D01*
X86614D01*
Y50535D01*
X95669D01*
Y51303D01*
X124803D01*
Y50535D01*
X133858D01*
Y54078D01*
X130535D01*
Y55689D01*
X131143D01*
Y60414D01*
X126419D01*
Y59657D01*
X123934D01*
X123901Y59823D01*
X123467Y60474D01*
X122815Y60909D01*
X122376Y60997D01*
X120503Y62870D01*
Y108728D01*
X123793Y112018D01*
X126419D01*
Y111261D01*
X125959Y111165D01*
X124803D01*
Y107622D01*
X133858D01*
Y111065D01*
X135277D01*
Y113624D01*
X135868D01*
Y114214D01*
X138427D01*
Y116103D01*
X145965D01*
X146172Y115603D01*
D02*
G37*
G36*
X194843Y106299D02*
X186201Y106299D01*
X183400Y109099D01*
X183075Y109317D01*
X182691Y109393D01*
X167915D01*
X167519Y109645D01*
Y111614D01*
X164960D01*
Y112795D01*
X167519D01*
Y114351D01*
X173537D01*
X175193Y112695D01*
X175095Y112205D01*
X175248Y111436D01*
X175683Y110785D01*
X176334Y110350D01*
X177102Y110197D01*
X177870Y110350D01*
X178522Y110785D01*
X178957Y111436D01*
X179109Y112205D01*
X178957Y112973D01*
X178522Y113624D01*
X177870Y114059D01*
X177102Y114212D01*
X176612Y114114D01*
X175123Y115603D01*
X175330Y116103D01*
X194843D01*
Y106299D01*
D02*
G37*
G36*
X184252Y105410D02*
Y95397D01*
X167890D01*
X167421Y95472D01*
X167421Y95897D01*
Y97441D01*
X164862D01*
Y98622D01*
X167421D01*
Y100551D01*
X175405D01*
X175683Y100136D01*
X176334Y99701D01*
X177102Y99548D01*
X177870Y99701D01*
X178522Y100136D01*
X178957Y100787D01*
X179109Y101555D01*
X178957Y102323D01*
X178522Y102974D01*
X177870Y103409D01*
X177102Y103562D01*
X176334Y103409D01*
X175683Y102974D01*
X175405Y102559D01*
X167921D01*
X167421Y102559D01*
X167421Y103059D01*
Y104527D01*
X164862D01*
Y105708D01*
X167421D01*
Y107386D01*
X182275D01*
X184252Y105410D01*
D02*
G37*
G36*
X184252Y82559D02*
X176865D01*
X176481Y82482D01*
X176155Y82265D01*
X175209Y81318D01*
X167421D01*
Y83267D01*
X164862D01*
Y84449D01*
X167421D01*
Y86398D01*
X175405D01*
X175683Y85982D01*
X176334Y85547D01*
X177102Y85394D01*
X177870Y85547D01*
X178522Y85982D01*
X178957Y86633D01*
X179109Y87401D01*
X178957Y88170D01*
X178522Y88821D01*
X177870Y89256D01*
X177102Y89409D01*
X176334Y89256D01*
X175683Y88821D01*
X175405Y88405D01*
X167421D01*
Y90354D01*
X164862D01*
Y91535D01*
X167421D01*
Y93390D01*
X184252D01*
Y82559D01*
D02*
G37*
G36*
X184252Y68348D02*
X183049Y67145D01*
X167421D01*
Y69094D01*
X164862D01*
Y70275D01*
X167421D01*
Y72225D01*
X175405D01*
X175683Y71809D01*
X176334Y71374D01*
X177102Y71221D01*
X177870Y71374D01*
X178522Y71809D01*
X178957Y72460D01*
X179109Y73228D01*
X178957Y73996D01*
X178522Y74647D01*
X177870Y75083D01*
X177102Y75235D01*
X176334Y75083D01*
X175683Y74647D01*
X175405Y74232D01*
X167421D01*
Y76181D01*
X164862D01*
Y77362D01*
X167421D01*
Y79311D01*
X175625D01*
X176009Y79388D01*
X176334Y79605D01*
X177280Y80551D01*
X184252D01*
X184252Y68348D01*
D02*
G37*
G36*
X184094Y65013D02*
X184252Y64883D01*
Y58250D01*
X178974Y52972D01*
X167421D01*
Y54921D01*
X164862D01*
Y56102D01*
X167421D01*
Y58052D01*
X175405D01*
X175683Y57636D01*
X176334Y57201D01*
X177102Y57048D01*
X177870Y57201D01*
X178522Y57636D01*
X178957Y58287D01*
X179109Y59055D01*
X178957Y59823D01*
X178522Y60474D01*
X177870Y60909D01*
X177102Y61062D01*
X176334Y60909D01*
X175683Y60474D01*
X175405Y60059D01*
X167421D01*
Y62008D01*
X164862D01*
Y63189D01*
X167421D01*
Y65138D01*
X183465D01*
X183752Y65195D01*
X184094Y65013D01*
D02*
G37*
G36*
X184252Y54758D02*
Y48250D01*
X174801Y38799D01*
X167421D01*
Y40748D01*
X164862D01*
Y41929D01*
X167421D01*
Y43878D01*
X175405D01*
X175683Y43463D01*
X176334Y43027D01*
X177102Y42875D01*
X177870Y43027D01*
X178522Y43463D01*
X178957Y44114D01*
X179109Y44882D01*
X178957Y45650D01*
X178522Y46301D01*
X177870Y46736D01*
X177102Y46889D01*
X176334Y46736D01*
X175683Y46301D01*
X175405Y45885D01*
X167421D01*
Y47834D01*
X164862D01*
Y49016D01*
X167421D01*
Y50965D01*
X179390D01*
X179774Y51041D01*
X180099Y51259D01*
X183790Y54949D01*
X184252Y54758D01*
D02*
G37*
G36*
Y44758D02*
X184252Y38427D01*
X170450Y24625D01*
X167421D01*
Y26575D01*
X164862D01*
Y27756D01*
X167421D01*
Y29705D01*
X170350D01*
X170628Y29289D01*
X171279Y28854D01*
X172047Y28702D01*
X172815Y28854D01*
X173467Y29289D01*
X173901Y29941D01*
X174054Y30709D01*
X173901Y31477D01*
X173467Y32128D01*
X172815Y32563D01*
X172047Y32716D01*
X171279Y32563D01*
X170628Y32128D01*
X170350Y31712D01*
X167421D01*
Y33661D01*
X164862D01*
Y34842D01*
X167421D01*
Y36792D01*
X175217D01*
X175601Y36868D01*
X175926Y37086D01*
X183790Y44949D01*
X184252Y44758D01*
D02*
G37*
G36*
X184252Y34935D02*
Y28592D01*
X177812Y22152D01*
X177594Y21827D01*
X177518Y21443D01*
Y14671D01*
X173299Y10452D01*
X167421D01*
Y12401D01*
X164862D01*
Y13582D01*
X167421D01*
Y15532D01*
X170350D01*
X170628Y15116D01*
X171279Y14681D01*
X172047Y14528D01*
X172815Y14681D01*
X173467Y15116D01*
X173901Y15767D01*
X174054Y16535D01*
X173901Y17303D01*
X173467Y17955D01*
X172815Y18390D01*
X172047Y18542D01*
X171279Y18390D01*
X170628Y17955D01*
X170350Y17539D01*
X167421D01*
Y19488D01*
X164862D01*
Y20669D01*
X167421D01*
Y22618D01*
X170866D01*
X171250Y22695D01*
X171576Y22912D01*
X183790Y35127D01*
X184252Y34935D01*
D02*
G37*
G36*
Y25100D02*
Y16831D01*
X184252D01*
Y8790D01*
X179226Y3763D01*
X167519D01*
Y5315D01*
X164960D01*
Y6496D01*
X167519D01*
Y8445D01*
X173715D01*
X174099Y8522D01*
X174424Y8739D01*
X179231Y13546D01*
X179449Y13872D01*
X179525Y14256D01*
Y21027D01*
X183790Y25292D01*
X184252Y25100D01*
D02*
G37*
G36*
X194843Y6693D02*
Y2007D01*
X181529D01*
X181337Y2469D01*
X185561Y6693D01*
X194843Y6693D01*
D02*
G37*
%LPC*%
G36*
X138427Y113033D02*
X136458D01*
Y111065D01*
X138427D01*
Y113033D01*
D02*
G37*
G36*
X65748Y112598D02*
X61024D01*
Y111240D01*
X39528D01*
X39144Y111164D01*
X38818Y110946D01*
X35324Y107451D01*
X34441Y107817D01*
X33465Y107946D01*
X32488Y107817D01*
X31578Y107440D01*
X30797Y106841D01*
X30198Y106059D01*
X29821Y105149D01*
X29692Y104173D01*
X29821Y103197D01*
X30198Y102287D01*
X30797Y101506D01*
X31578Y100906D01*
X32488Y100529D01*
X33465Y100401D01*
X34441Y100529D01*
X35351Y100906D01*
X36132Y101506D01*
X36732Y102287D01*
X37108Y103197D01*
X37237Y104173D01*
X37108Y105149D01*
X36743Y106032D01*
X39944Y109233D01*
X61024D01*
Y107874D01*
X65748D01*
Y112598D01*
D02*
G37*
G36*
X134055Y106362D02*
X129921D01*
Y104984D01*
X134055D01*
Y106362D01*
D02*
G37*
G36*
X128740D02*
X124606D01*
Y104984D01*
X128740D01*
Y106362D01*
D02*
G37*
G36*
X72835Y112598D02*
X68110D01*
Y107874D01*
X72835D01*
Y108739D01*
X73335Y108891D01*
X73384Y108817D01*
X74035Y108382D01*
X74803Y108229D01*
X75571Y108382D01*
X76222Y108817D01*
X76500Y109233D01*
X78167D01*
X83936Y103464D01*
X84262Y103246D01*
X84646Y103170D01*
X86614D01*
Y102622D01*
X95669D01*
Y106165D01*
X86614D01*
Y105177D01*
X85061D01*
X79292Y110946D01*
X78966Y111164D01*
X78582Y111240D01*
X76500D01*
X76222Y111656D01*
X75571Y112091D01*
X74803Y112243D01*
X74035Y112091D01*
X73384Y111656D01*
X73335Y111582D01*
X72835Y111733D01*
Y112598D01*
D02*
G37*
G36*
X128740Y103803D02*
X124606D01*
Y102425D01*
X128740D01*
Y103803D01*
D02*
G37*
G36*
X43465Y107946D02*
X42488Y107817D01*
X41578Y107440D01*
X40797Y106841D01*
X40198Y106059D01*
X39821Y105149D01*
X39692Y104173D01*
X39821Y103197D01*
X40198Y102287D01*
X40797Y101506D01*
X41578Y100906D01*
X41601Y100897D01*
X41501Y100397D01*
X38685D01*
X38301Y100320D01*
X37975Y100103D01*
X35324Y97451D01*
X34441Y97817D01*
X33465Y97946D01*
X32488Y97817D01*
X31578Y97440D01*
X30797Y96841D01*
X30198Y96059D01*
X29821Y95149D01*
X29692Y94173D01*
X29821Y93197D01*
X30198Y92287D01*
X30797Y91506D01*
X31578Y90906D01*
X32488Y90529D01*
X33465Y90401D01*
X34441Y90529D01*
X35351Y90906D01*
X36132Y91506D01*
X36732Y92287D01*
X37108Y93197D01*
X37237Y94173D01*
X37108Y95149D01*
X36743Y96032D01*
X39100Y98390D01*
X43008D01*
X43041Y97890D01*
X42488Y97817D01*
X41578Y97440D01*
X40797Y96841D01*
X40198Y96059D01*
X39821Y95149D01*
X39692Y94173D01*
X39821Y93197D01*
X40198Y92287D01*
X40797Y91506D01*
X41578Y90906D01*
X41601Y90897D01*
X41501Y90397D01*
X38685D01*
X38301Y90320D01*
X37975Y90103D01*
X35324Y87451D01*
X34441Y87817D01*
X33465Y87946D01*
X32488Y87817D01*
X31578Y87440D01*
X30797Y86841D01*
X30198Y86059D01*
X29821Y85150D01*
X29692Y84173D01*
X29821Y83197D01*
X30198Y82287D01*
X30797Y81506D01*
X31578Y80906D01*
X32488Y80529D01*
X33465Y80401D01*
X34441Y80529D01*
X35351Y80906D01*
X36132Y81506D01*
X36732Y82287D01*
X37108Y83197D01*
X37237Y84173D01*
X37108Y85150D01*
X36743Y86032D01*
X39100Y88390D01*
X43008D01*
X43041Y87890D01*
X42488Y87817D01*
X41578Y87440D01*
X40797Y86841D01*
X40198Y86059D01*
X39821Y85150D01*
X39692Y84173D01*
X39821Y83197D01*
X40198Y82287D01*
X40797Y81506D01*
X41578Y80906D01*
X41601Y80897D01*
X41501Y80397D01*
X38685D01*
X38301Y80321D01*
X37975Y80103D01*
X35324Y77451D01*
X34441Y77817D01*
X33465Y77946D01*
X32488Y77817D01*
X31578Y77440D01*
X30797Y76841D01*
X30198Y76059D01*
X29821Y75150D01*
X29692Y74173D01*
X29821Y73197D01*
X30198Y72287D01*
X30797Y71506D01*
X31578Y70906D01*
X32488Y70529D01*
X33465Y70401D01*
X34441Y70529D01*
X35351Y70906D01*
X36132Y71506D01*
X36732Y72287D01*
X37108Y73197D01*
X37237Y74173D01*
X37108Y75150D01*
X36743Y76032D01*
X39100Y78390D01*
X43008D01*
X43041Y77890D01*
X42488Y77817D01*
X41578Y77440D01*
X40797Y76841D01*
X40198Y76059D01*
X39821Y75150D01*
X39692Y74173D01*
X39821Y73197D01*
X40198Y72287D01*
X40797Y71506D01*
X41578Y70906D01*
X41847Y70795D01*
X41747Y70295D01*
X38583D01*
X38199Y70218D01*
X37873Y70001D01*
X35324Y67451D01*
X34441Y67817D01*
X33465Y67946D01*
X32488Y67817D01*
X31578Y67440D01*
X30797Y66841D01*
X30198Y66059D01*
X29821Y65149D01*
X29692Y64173D01*
X29821Y63197D01*
X30198Y62287D01*
X30797Y61506D01*
X31578Y60906D01*
X32488Y60529D01*
X33465Y60401D01*
X34441Y60529D01*
X35351Y60906D01*
X36132Y61506D01*
X36732Y62287D01*
X37108Y63197D01*
X37237Y64173D01*
X37108Y65149D01*
X36743Y66032D01*
X38998Y68288D01*
X42380D01*
X42488Y67817D01*
X41578Y67440D01*
X40797Y66841D01*
X40198Y66059D01*
X39821Y65149D01*
X39692Y64173D01*
X39821Y63197D01*
X40198Y62287D01*
X40797Y61506D01*
X41578Y60906D01*
X42488Y60529D01*
X42380Y60059D01*
X38346D01*
X37962Y59982D01*
X37637Y59765D01*
X35324Y57451D01*
X34441Y57817D01*
X33465Y57946D01*
X32488Y57817D01*
X31578Y57440D01*
X30797Y56841D01*
X30198Y56059D01*
X29821Y55150D01*
X29692Y54173D01*
X29821Y53197D01*
X30198Y52287D01*
X30797Y51506D01*
X31578Y50906D01*
X32488Y50529D01*
X33465Y50401D01*
X34441Y50529D01*
X35351Y50906D01*
X36132Y51506D01*
X36732Y52287D01*
X37108Y53197D01*
X37237Y54173D01*
X37108Y55150D01*
X36743Y56032D01*
X38762Y58052D01*
X41748D01*
X41847Y57551D01*
X41578Y57440D01*
X40797Y56841D01*
X40198Y56059D01*
X39821Y55150D01*
X39692Y54173D01*
X39821Y53197D01*
X40198Y52287D01*
X40797Y51506D01*
X41578Y50906D01*
X42488Y50529D01*
X43465Y50401D01*
X44441Y50529D01*
X45351Y50906D01*
X46132Y51506D01*
X46217Y51511D01*
X61024Y36704D01*
Y35811D01*
X60524Y35604D01*
X46599Y49529D01*
X46273Y49746D01*
X45889Y49823D01*
X38111D01*
X37727Y49746D01*
X37401Y49529D01*
X35324Y47451D01*
X34441Y47817D01*
X33465Y47946D01*
X32488Y47817D01*
X31578Y47440D01*
X30797Y46841D01*
X30198Y46059D01*
X29821Y45149D01*
X29692Y44173D01*
X29821Y43197D01*
X30198Y42287D01*
X30797Y41506D01*
X31578Y40906D01*
X32488Y40529D01*
X33465Y40401D01*
X34441Y40529D01*
X35351Y40906D01*
X36132Y41506D01*
X36732Y42287D01*
X37108Y43197D01*
X37237Y44173D01*
X37108Y45149D01*
X36743Y46032D01*
X38526Y47816D01*
X41246D01*
X41416Y47316D01*
X40797Y46841D01*
X40198Y46059D01*
X39821Y45149D01*
X39692Y44173D01*
X39821Y43197D01*
X40198Y42287D01*
X40797Y41506D01*
X41578Y40906D01*
X41657Y40874D01*
X41558Y40374D01*
X38661D01*
X38277Y40297D01*
X37952Y40080D01*
X35324Y37451D01*
X34441Y37817D01*
X33465Y37946D01*
X32488Y37817D01*
X31578Y37440D01*
X30797Y36841D01*
X30198Y36059D01*
X29821Y35149D01*
X29692Y34173D01*
X29821Y33197D01*
X30198Y32287D01*
X30797Y31506D01*
X31578Y30906D01*
X32488Y30529D01*
X33465Y30401D01*
X34441Y30529D01*
X35351Y30906D01*
X36132Y31506D01*
X36732Y32287D01*
X37108Y33197D01*
X37237Y34173D01*
X37108Y35149D01*
X36743Y36032D01*
X39077Y38366D01*
X42831D01*
X42864Y37867D01*
X42488Y37817D01*
X41578Y37440D01*
X40797Y36841D01*
X40198Y36059D01*
X39821Y35149D01*
X39692Y34173D01*
X39821Y33197D01*
X40198Y32287D01*
X40797Y31506D01*
X41578Y30906D01*
X42488Y30529D01*
X43465Y30401D01*
X44441Y30529D01*
X45324Y30895D01*
X48603Y27616D01*
Y19291D01*
X48679Y18907D01*
X48897Y18582D01*
X60314Y7165D01*
X60639Y6947D01*
X61023Y6871D01*
X61024D01*
Y5512D01*
X65748D01*
Y10236D01*
X61024D01*
Y9946D01*
X60562Y9755D01*
X50610Y19707D01*
Y28031D01*
X50533Y28416D01*
X50316Y28741D01*
X46743Y32314D01*
X47108Y33197D01*
X47237Y34173D01*
X47108Y35149D01*
X46924Y35596D01*
X47348Y35879D01*
X52145Y31081D01*
Y25526D01*
X52222Y25142D01*
X52439Y24816D01*
X61024Y16232D01*
Y12336D01*
X65748D01*
Y17061D01*
X63033D01*
X61434Y18660D01*
X61641Y19160D01*
X65748D01*
Y23885D01*
X63033D01*
X61434Y25484D01*
X61641Y25984D01*
X65748D01*
Y30709D01*
X63033D01*
X61434Y32309D01*
X61598Y32809D01*
X65748D01*
Y37533D01*
X63033D01*
X61434Y39133D01*
X61641Y39633D01*
X65748D01*
Y44357D01*
X63033D01*
X61434Y45957D01*
X61641Y46457D01*
X65748D01*
Y51181D01*
X61262D01*
X47560Y64883D01*
X47234Y65100D01*
X47112Y65125D01*
X47108Y65149D01*
X46732Y66059D01*
X46132Y66841D01*
X45351Y67440D01*
X44441Y67817D01*
X44549Y68288D01*
X47794D01*
X61024Y55059D01*
Y53281D01*
X65748D01*
Y58005D01*
X61024D01*
X61024Y58005D01*
Y58005D01*
X60647Y58274D01*
X48920Y70001D01*
X48594Y70218D01*
X48210Y70295D01*
X45182D01*
X45082Y70795D01*
X45351Y70906D01*
X46132Y71506D01*
X46732Y72287D01*
X47097Y73170D01*
X49656D01*
X60937Y61889D01*
X61024Y61831D01*
Y60105D01*
X65748D01*
Y64829D01*
X61024D01*
X61024Y64829D01*
Y64829D01*
X60616Y65048D01*
X50781Y74883D01*
X50456Y75100D01*
X50072Y75177D01*
X47097D01*
X46732Y76059D01*
X46132Y76841D01*
X45351Y77440D01*
X44441Y77817D01*
X43888Y77890D01*
X43921Y78390D01*
X50546D01*
X60354Y68582D01*
X60679Y68364D01*
X61024Y68296D01*
Y66929D01*
X65748D01*
Y71654D01*
X61024D01*
Y71404D01*
X60562Y71212D01*
X51671Y80103D01*
X51345Y80321D01*
X50962Y80397D01*
X45428D01*
X45328Y80897D01*
X45351Y80906D01*
X46132Y81506D01*
X46732Y82287D01*
X47097Y83170D01*
X50582D01*
X58346Y75406D01*
X58671Y75188D01*
X59055Y75112D01*
X61024D01*
Y73753D01*
X65748D01*
Y78478D01*
X61024D01*
Y77119D01*
X59471D01*
X51707Y84883D01*
X51381Y85100D01*
X50998Y85177D01*
X47097D01*
X46732Y86059D01*
X46132Y86841D01*
X45351Y87440D01*
X44441Y87817D01*
X43888Y87890D01*
X43921Y88390D01*
X51923D01*
X58346Y81968D01*
X58671Y81750D01*
X59055Y81674D01*
X61024D01*
Y80577D01*
X65748D01*
Y85302D01*
X61024D01*
Y83681D01*
X59471D01*
X53048Y90103D01*
X52723Y90320D01*
X52339Y90397D01*
X45428D01*
X45328Y90897D01*
X45351Y90906D01*
X46132Y91506D01*
X46732Y92287D01*
X47097Y93170D01*
X53443D01*
X57558Y89054D01*
X57884Y88837D01*
X58268Y88760D01*
X61024D01*
Y87402D01*
X65748D01*
Y92126D01*
X61024D01*
Y90767D01*
X58683D01*
X54568Y94883D01*
X54242Y95100D01*
X53858Y95177D01*
X47097D01*
X46732Y96059D01*
X46132Y96841D01*
X45351Y97440D01*
X44441Y97817D01*
X43888Y97890D01*
X43921Y98390D01*
X54128D01*
X56639Y95878D01*
X56965Y95661D01*
X57349Y95584D01*
X61024D01*
Y94226D01*
X65748D01*
Y98950D01*
X61024D01*
Y97591D01*
X57765D01*
X55253Y100103D01*
X54928Y100320D01*
X54544Y100397D01*
X45428D01*
X45328Y100897D01*
X45351Y100906D01*
X46132Y101506D01*
X46732Y102287D01*
X47097Y103170D01*
X61024D01*
Y101050D01*
X65748D01*
Y105774D01*
X61024D01*
Y105177D01*
X47097D01*
X46732Y106059D01*
X46132Y106841D01*
X45351Y107440D01*
X44441Y107817D01*
X43465Y107946D01*
D02*
G37*
G36*
X72835Y105774D02*
X68110D01*
Y101050D01*
X72835D01*
Y101915D01*
X73335Y102067D01*
X73384Y101993D01*
X74035Y101558D01*
X74803Y101405D01*
X75571Y101558D01*
X76222Y101993D01*
X76500Y102409D01*
X78718D01*
X82443Y98684D01*
X82768Y98466D01*
X83152Y98390D01*
X86614D01*
Y97622D01*
X95669D01*
Y101165D01*
X86614D01*
Y100397D01*
X83568D01*
X79843Y104122D01*
X79517Y104339D01*
X79133Y104416D01*
X76500D01*
X76222Y104832D01*
X75571Y105267D01*
X74803Y105419D01*
X74035Y105267D01*
X73384Y104832D01*
X73335Y104758D01*
X72835Y104909D01*
Y105774D01*
D02*
G37*
G36*
Y98950D02*
X68110D01*
Y94226D01*
X72835D01*
Y95091D01*
X73335Y95243D01*
X73384Y95169D01*
X74035Y94734D01*
X74803Y94581D01*
X75571Y94734D01*
X76222Y95169D01*
X76500Y95585D01*
X79768D01*
X81669Y93684D01*
X81994Y93466D01*
X82378Y93390D01*
X86614D01*
Y92622D01*
X95669D01*
Y96165D01*
X86614D01*
Y95397D01*
X82794D01*
X80893Y97298D01*
X80568Y97515D01*
X80183Y97592D01*
X76500D01*
X76222Y98007D01*
X75571Y98442D01*
X74803Y98595D01*
X74035Y98442D01*
X73384Y98007D01*
X73335Y97934D01*
X72835Y98085D01*
Y98950D01*
D02*
G37*
G36*
Y92126D02*
X68110D01*
Y87402D01*
X72835D01*
Y88267D01*
X73335Y88419D01*
X73384Y88345D01*
X74035Y87910D01*
X74803Y87757D01*
X75571Y87910D01*
X76222Y88345D01*
X76500Y88761D01*
X86614D01*
Y87622D01*
X95669D01*
Y91165D01*
X86614D01*
Y90768D01*
X76500D01*
X76222Y91183D01*
X75571Y91618D01*
X74803Y91771D01*
X74035Y91618D01*
X73384Y91183D01*
X73335Y91110D01*
X72835Y91261D01*
Y92126D01*
D02*
G37*
G36*
X95669Y86165D02*
X86614D01*
Y85397D01*
X76789D01*
X76405Y85321D01*
X76080Y85103D01*
X75691Y84714D01*
X75571Y84794D01*
X74803Y84947D01*
X74035Y84794D01*
X73384Y84359D01*
X73335Y84285D01*
X72835Y84437D01*
Y85302D01*
X68110D01*
Y80577D01*
X72835D01*
Y81443D01*
X73335Y81595D01*
X73384Y81521D01*
X74035Y81086D01*
X74803Y80933D01*
X75571Y81086D01*
X76222Y81521D01*
X76657Y82172D01*
X76810Y82940D01*
X76801Y82986D01*
X77205Y83390D01*
X86614D01*
Y82622D01*
X95669D01*
Y86165D01*
D02*
G37*
G36*
Y81165D02*
X86614D01*
Y80397D01*
X78081D01*
X77697Y80321D01*
X77371Y80103D01*
X75293Y78025D01*
X74803Y78123D01*
X74035Y77970D01*
X73384Y77535D01*
X73335Y77461D01*
X72835Y77613D01*
Y78478D01*
X68110D01*
Y73753D01*
X72835D01*
Y74619D01*
X73335Y74770D01*
X73384Y74697D01*
X74035Y74261D01*
X74803Y74109D01*
X75571Y74261D01*
X76222Y74697D01*
X76657Y75348D01*
X76810Y76116D01*
X76713Y76606D01*
X78496Y78390D01*
X86614D01*
Y77622D01*
X95669D01*
Y81165D01*
D02*
G37*
G36*
Y76165D02*
X86614D01*
Y75397D01*
X79905D01*
X79521Y75321D01*
X79195Y75103D01*
X75293Y71201D01*
X74803Y71299D01*
X74035Y71146D01*
X73384Y70711D01*
X73335Y70637D01*
X72835Y70789D01*
Y71654D01*
X68110D01*
Y66929D01*
X72835D01*
Y67795D01*
X73335Y67946D01*
X73384Y67872D01*
X74035Y67437D01*
X74803Y67285D01*
X75571Y67437D01*
X76222Y67872D01*
X76657Y68524D01*
X76810Y69292D01*
X76713Y69782D01*
X80321Y73390D01*
X86614D01*
Y72622D01*
X95669D01*
Y76165D01*
D02*
G37*
G36*
Y71165D02*
X86614D01*
Y70397D01*
X81729D01*
X81345Y70320D01*
X81019Y70103D01*
X75293Y64377D01*
X74803Y64475D01*
X74035Y64322D01*
X73384Y63887D01*
X73335Y63813D01*
X72835Y63965D01*
Y64829D01*
X68110D01*
Y60105D01*
X72835D01*
Y60970D01*
X73335Y61122D01*
X73384Y61048D01*
X74035Y60613D01*
X74803Y60460D01*
X75571Y60613D01*
X76222Y61048D01*
X76657Y61699D01*
X76810Y62467D01*
X76713Y62958D01*
X82145Y68390D01*
X86614D01*
Y67622D01*
X95669D01*
Y71165D01*
D02*
G37*
G36*
X95866Y66362D02*
X91732D01*
Y64984D01*
X95866D01*
Y66362D01*
D02*
G37*
G36*
X90551D02*
X86417D01*
Y64984D01*
X90551D01*
Y66362D01*
D02*
G37*
G36*
X95866Y63803D02*
X91732D01*
Y62425D01*
X95866D01*
Y63803D01*
D02*
G37*
G36*
X90551D02*
X86417D01*
Y62425D01*
X90551D01*
Y63803D01*
D02*
G37*
G36*
X138427Y60611D02*
X136458D01*
Y58642D01*
X138427D01*
Y60611D01*
D02*
G37*
G36*
X135277D02*
X133308D01*
Y58642D01*
X135277D01*
Y60611D01*
D02*
G37*
G36*
X138427Y57461D02*
X136458D01*
Y55493D01*
X138427D01*
Y57461D01*
D02*
G37*
G36*
X135277D02*
X133308D01*
Y55493D01*
X135277D01*
Y57461D01*
D02*
G37*
G36*
X134055Y49275D02*
X129921D01*
Y47897D01*
X134055D01*
Y49275D01*
D02*
G37*
G36*
X128740D02*
X124606D01*
Y47897D01*
X128740D01*
Y49275D01*
D02*
G37*
G36*
X72835Y58005D02*
X68110D01*
Y53281D01*
X72835D01*
Y54146D01*
X73335Y54298D01*
X73384Y54224D01*
X74035Y53789D01*
X74803Y53636D01*
X75293Y53734D01*
X82430Y46597D01*
X82756Y46380D01*
X83140Y46303D01*
X86614D01*
Y45535D01*
X95669D01*
Y49078D01*
X86614D01*
Y48310D01*
X83556D01*
X76713Y55153D01*
X76810Y55643D01*
X76657Y56411D01*
X76222Y57063D01*
X75571Y57498D01*
X74803Y57650D01*
X74035Y57498D01*
X73384Y57063D01*
X73335Y56989D01*
X72835Y57140D01*
Y58005D01*
D02*
G37*
G36*
X128740Y46716D02*
X124606D01*
Y45338D01*
X128740D01*
Y46716D01*
D02*
G37*
G36*
X72835Y51181D02*
X68110D01*
Y46457D01*
X72835D01*
Y47322D01*
X73335Y47474D01*
X73384Y47400D01*
X74035Y46965D01*
X74803Y46812D01*
X75293Y46910D01*
X80606Y41597D01*
X80932Y41380D01*
X81316Y41303D01*
X86614D01*
Y40535D01*
X95669D01*
Y44078D01*
X86614D01*
Y43310D01*
X81731D01*
X76713Y48329D01*
X76810Y48819D01*
X76657Y49587D01*
X76222Y50239D01*
X75571Y50674D01*
X74803Y50826D01*
X74035Y50674D01*
X73384Y50239D01*
X73335Y50165D01*
X72835Y50316D01*
Y51181D01*
D02*
G37*
G36*
Y44357D02*
X68110D01*
Y39633D01*
X72835D01*
Y40498D01*
X73335Y40650D01*
X73384Y40576D01*
X74035Y40141D01*
X74803Y39988D01*
X75293Y40086D01*
X78782Y36597D01*
X79107Y36380D01*
X79492Y36303D01*
X86614D01*
Y35535D01*
X95669D01*
Y39078D01*
X86614D01*
Y38310D01*
X79907D01*
X76713Y41505D01*
X76810Y41995D01*
X76657Y42763D01*
X76222Y43414D01*
X75571Y43849D01*
X74803Y44002D01*
X74035Y43849D01*
X73384Y43414D01*
X73335Y43341D01*
X72835Y43492D01*
Y44357D01*
D02*
G37*
G36*
Y37533D02*
X68110D01*
Y32809D01*
X72835D01*
Y33674D01*
X73335Y33825D01*
X73384Y33752D01*
X74035Y33317D01*
X74803Y33164D01*
X75293Y33261D01*
X76958Y31597D01*
X77283Y31380D01*
X77667Y31303D01*
X86614D01*
Y30535D01*
X95669D01*
Y34078D01*
X86614D01*
Y33310D01*
X78083D01*
X76713Y34681D01*
X76810Y35171D01*
X76657Y35939D01*
X76222Y36590D01*
X75571Y37025D01*
X74803Y37178D01*
X74035Y37025D01*
X73384Y36590D01*
X73335Y36516D01*
X72835Y36668D01*
Y37533D01*
D02*
G37*
G36*
Y30709D02*
X68110D01*
Y25984D01*
X72835D01*
Y26850D01*
X73335Y27001D01*
X73384Y26928D01*
X74035Y26493D01*
X74803Y26340D01*
X75571Y26493D01*
X76222Y26928D01*
X76500Y27343D01*
X79860D01*
X80606Y26597D01*
X80932Y26380D01*
X81316Y26303D01*
X86614D01*
Y25535D01*
X95669D01*
Y29078D01*
X86614D01*
Y28310D01*
X81731D01*
X80985Y29057D01*
X80660Y29274D01*
X80275Y29350D01*
X76500D01*
X76222Y29766D01*
X75571Y30201D01*
X74803Y30354D01*
X74035Y30201D01*
X73384Y29766D01*
X73335Y29692D01*
X72835Y29844D01*
Y30709D01*
D02*
G37*
G36*
X44055Y28066D02*
Y24764D01*
X47358D01*
X47300Y25201D01*
X46903Y26159D01*
X46273Y26981D01*
X45450Y27612D01*
X44492Y28009D01*
X44055Y28066D01*
D02*
G37*
G36*
X34055D02*
Y24764D01*
X37358D01*
X37300Y25201D01*
X36904Y26159D01*
X36272Y26981D01*
X35450Y27612D01*
X34492Y28009D01*
X34055Y28066D01*
D02*
G37*
G36*
X42874Y28066D02*
X42437Y28009D01*
X41479Y27612D01*
X40657Y26981D01*
X40026Y26159D01*
X39629Y25201D01*
X39571Y24764D01*
X42874D01*
Y28066D01*
D02*
G37*
G36*
X32874D02*
X32437Y28009D01*
X31479Y27612D01*
X30657Y26981D01*
X30026Y26159D01*
X29629Y25201D01*
X29571Y24764D01*
X32874D01*
Y28066D01*
D02*
G37*
G36*
X95669Y24078D02*
X86614D01*
Y23310D01*
X81316D01*
X80932Y23234D01*
X80606Y23016D01*
X80116Y22526D01*
X76500D01*
X76222Y22942D01*
X75571Y23377D01*
X74803Y23530D01*
X74035Y23377D01*
X73384Y22942D01*
X73335Y22868D01*
X72835Y23020D01*
Y23885D01*
X68110D01*
Y19160D01*
X72835D01*
Y20026D01*
X73335Y20177D01*
X73384Y20103D01*
X74035Y19668D01*
X74803Y19516D01*
X75571Y19668D01*
X76222Y20103D01*
X76500Y20519D01*
X80532D01*
X80916Y20596D01*
X81241Y20813D01*
X81731Y21303D01*
X86614D01*
Y20535D01*
X95669D01*
Y24078D01*
D02*
G37*
G36*
X42874Y23583D02*
X39571D01*
X39629Y23145D01*
X40026Y22188D01*
X40657Y21365D01*
X41479Y20734D01*
X42437Y20337D01*
X42874Y20280D01*
Y23583D01*
D02*
G37*
G36*
X32874D02*
X29571D01*
X29629Y23145D01*
X30026Y22188D01*
X30657Y21365D01*
X31479Y20734D01*
X32437Y20337D01*
X32874Y20280D01*
Y23583D01*
D02*
G37*
G36*
X47358D02*
X44055D01*
Y20280D01*
X44492Y20337D01*
X45450Y20734D01*
X46273Y21365D01*
X46903Y22188D01*
X47300Y23145D01*
X47358Y23583D01*
D02*
G37*
G36*
X37358D02*
X34055D01*
Y20280D01*
X34492Y20337D01*
X35450Y20734D01*
X36272Y21365D01*
X36904Y22188D01*
X37300Y23145D01*
X37358Y23583D01*
D02*
G37*
G36*
X95669Y19078D02*
X86614D01*
Y18310D01*
X77411D01*
X77027Y18234D01*
X76702Y18016D01*
X75293Y16608D01*
X74803Y16706D01*
X74035Y16553D01*
X73384Y16118D01*
X73335Y16044D01*
X72835Y16196D01*
Y17061D01*
X68110D01*
Y12336D01*
X72835D01*
Y13202D01*
X73335Y13353D01*
X73384Y13279D01*
X74035Y12844D01*
X74803Y12691D01*
X75571Y12844D01*
X76222Y13279D01*
X76657Y13930D01*
X76810Y14699D01*
X76713Y15189D01*
X77827Y16303D01*
X86614D01*
Y15535D01*
X95669D01*
Y19078D01*
D02*
G37*
G36*
Y14078D02*
X86614D01*
Y13310D01*
X79235D01*
X78851Y13234D01*
X78526Y13016D01*
X75293Y9784D01*
X74803Y9882D01*
X74035Y9729D01*
X73384Y9294D01*
X73335Y9220D01*
X72835Y9372D01*
Y10236D01*
X68110D01*
Y5512D01*
X72835D01*
Y6377D01*
X73335Y6529D01*
X73384Y6455D01*
X74035Y6020D01*
X74803Y5867D01*
X75571Y6020D01*
X76222Y6455D01*
X76657Y7106D01*
X76810Y7875D01*
X76713Y8365D01*
X79651Y11303D01*
X86614D01*
Y10535D01*
X95669D01*
Y14078D01*
D02*
G37*
G36*
X33465Y17946D02*
X32488Y17817D01*
X31578Y17440D01*
X30797Y16841D01*
X30198Y16059D01*
X29821Y15149D01*
X29692Y14173D01*
X29821Y13197D01*
X30198Y12287D01*
X30797Y11506D01*
X31578Y10906D01*
X32488Y10529D01*
X33465Y10401D01*
X34441Y10529D01*
X35351Y10906D01*
X36132Y11506D01*
X36732Y12287D01*
X37108Y13197D01*
X37237Y14173D01*
X37108Y15149D01*
X36732Y16059D01*
X36132Y16841D01*
X35351Y17440D01*
X34441Y17817D01*
X33465Y17946D01*
D02*
G37*
G36*
X95866Y9275D02*
X91732D01*
Y7897D01*
X95866D01*
Y9275D01*
D02*
G37*
G36*
X90551D02*
X86417D01*
Y7897D01*
X90551D01*
Y9275D01*
D02*
G37*
G36*
X95866Y6716D02*
X91732D01*
Y5338D01*
X95866D01*
Y6716D01*
D02*
G37*
G36*
X90551D02*
X86417D01*
Y5338D01*
X90551D01*
Y6716D01*
D02*
G37*
%LPD*%
G36*
X61024Y48581D02*
Y47074D01*
X60524Y46867D01*
X47626Y59765D01*
X47300Y59982D01*
X46916Y60059D01*
X44550D01*
X44441Y60529D01*
X45351Y60906D01*
X46132Y61506D01*
X46679Y62218D01*
X47010Y62342D01*
X47220Y62384D01*
X61024Y48581D01*
D02*
G37*
G36*
Y43528D02*
Y40250D01*
X60524Y40043D01*
X47139Y53427D01*
X47237Y54173D01*
X47108Y55150D01*
X46732Y56059D01*
X46132Y56841D01*
X45351Y57440D01*
X45082Y57551D01*
X45181Y58052D01*
X46501D01*
X61024Y43528D01*
D02*
G37*
G36*
X59310Y33979D02*
Y32009D01*
X59387Y31625D01*
X59604Y31300D01*
X61024Y29880D01*
Y26601D01*
X60524Y26394D01*
X58353Y28565D01*
Y32448D01*
X58276Y32832D01*
X58059Y33158D01*
X47214Y44002D01*
X47237Y44173D01*
X47108Y45149D01*
X46879Y45703D01*
X47303Y45986D01*
X59310Y33979D01*
D02*
G37*
G36*
X56345Y32033D02*
Y28150D01*
X56422Y27766D01*
X56639Y27440D01*
X61024Y23056D01*
Y19777D01*
X60524Y19570D01*
X54152Y25942D01*
Y31497D01*
X54076Y31881D01*
X53858Y32206D01*
X45985Y40080D01*
X45660Y40297D01*
X45340Y40361D01*
X45317Y40412D01*
X45351Y40906D01*
X46132Y41506D01*
X46223Y41624D01*
X46722Y41657D01*
X56345Y32033D01*
D02*
G37*
D11*
X128781Y113624D02*
X129290D01*
X123128D02*
X128781D01*
X123051Y58052D02*
X128781D01*
X129290Y113624D02*
X129331Y113583D01*
X118898Y62205D02*
Y109393D01*
Y62205D02*
X122047Y59055D01*
X123051Y58052D01*
X118898Y109393D02*
X123128Y113624D01*
D12*
X133859Y38189D02*
X144095Y48425D01*
X132969Y38189D02*
X133859D01*
X132181Y37401D02*
X132969Y38189D01*
X178522Y14256D02*
Y21443D01*
X173715Y9449D02*
X178522Y14256D01*
X147736Y9449D02*
X173715D01*
X178522Y21443D02*
X188634Y31555D01*
X164862Y12992D02*
X165010Y12844D01*
X188634Y31555D02*
X190384D01*
X170866Y23622D02*
X185256Y38012D01*
X147638Y23622D02*
X170866D01*
X147638Y30709D02*
X172047D01*
X144095Y27165D02*
X147638Y30709D01*
X144095Y12992D02*
X147638Y16535D01*
X172047D01*
X150591Y20079D02*
X158366D01*
X144095D02*
X147638Y23622D01*
X91142Y64393D02*
X98425D01*
X129331Y113074D02*
Y113583D01*
X176865Y81555D02*
X190945D01*
X175625Y80315D02*
X176865Y81555D01*
X147638Y80315D02*
X175625D01*
X137810Y49227D02*
X144095Y55512D01*
X137810Y48306D02*
Y49227D01*
X131811Y42307D02*
X137810Y48306D01*
X137859Y98882D02*
X144095Y105118D01*
X137859Y97607D02*
Y98882D01*
X134646Y94393D02*
X137859Y97607D01*
X137728Y105740D02*
X144192Y112205D01*
X131972Y99393D02*
X137728Y105149D01*
Y105740D01*
X147342Y115354D02*
X173953D01*
X144192Y112205D02*
X147342Y115354D01*
X147366Y108390D02*
X182691D01*
X144095Y105118D02*
X147366Y108390D01*
X129331Y89393D02*
X135457D01*
X144095Y98031D01*
X147618Y101555D02*
X177102D01*
X144095Y98031D02*
X147618Y101555D01*
X129331Y84393D02*
X137543D01*
X144095Y90945D01*
X147543Y94393D02*
X188107D01*
X144095Y90945D02*
X147543Y94393D01*
X129331Y79393D02*
X139630D01*
X144095Y83858D01*
X147638Y87401D02*
X177102D01*
X144095Y83858D02*
X147638Y87401D01*
X129331Y74393D02*
X141716D01*
X144095Y76771D01*
X147638Y80315D01*
X147285Y73228D02*
X177102D01*
X129622Y69685D02*
X143742D01*
X147285Y73228D01*
X142913Y63779D02*
X144095Y62598D01*
X129945Y63779D02*
X142913D01*
X147638Y66142D02*
X183465D01*
X144390Y62893D02*
X147638Y66142D01*
Y59055D02*
X177102D01*
X144095Y55512D02*
X147638Y59055D01*
X129425Y37401D02*
X132181D01*
X147638Y51968D02*
X179390D01*
X144095Y48425D02*
X147638Y51968D01*
X129331Y32307D02*
X135063D01*
X144095Y41338D01*
X147638Y44882D02*
X177102D01*
X144095Y41338D02*
X147638Y44882D01*
X129331Y27307D02*
X137150D01*
X144095Y34252D01*
X147638Y37795D02*
X175217D01*
X144095Y34252D02*
X147638Y37795D01*
X129331Y22307D02*
X139236D01*
X144095Y27165D01*
X129331Y17307D02*
X141323D01*
X144095Y20079D01*
X129331Y12307D02*
X143409D01*
X144095Y12992D01*
X144192Y5905D02*
X147736Y9449D01*
X129331Y7307D02*
X142791D01*
X144192Y5905D01*
X62205Y48819D02*
X63976D01*
X46850Y64173D02*
X62205Y48819D01*
X43465Y64173D02*
X46850D01*
X76789Y84393D02*
X91142D01*
X75336Y82940D02*
X76789Y84393D01*
X57349Y28150D02*
Y32448D01*
X45624Y44173D02*
X57349Y32448D01*
X43465Y44173D02*
X45624D01*
X45276Y39370D02*
X53149Y31497D01*
Y25526D02*
Y31497D01*
Y25526D02*
X63976Y14698D01*
X57349Y28150D02*
X63976Y21522D01*
X45889Y48819D02*
X60314Y34394D01*
Y32009D02*
Y34394D01*
Y32009D02*
X63976Y28347D01*
X38111Y48819D02*
X45889D01*
X44974Y54173D02*
X63976Y35171D01*
X43465Y54173D02*
X44974D01*
X46916Y59055D02*
X63976Y41995D01*
X38346Y59055D02*
X46916D01*
X61647Y62598D02*
X63845D01*
X50072Y74173D02*
X61647Y62598D01*
X43465Y74173D02*
X50072D01*
X61858Y55643D02*
X63976D01*
X48210Y69291D02*
X61858Y55643D01*
X38583Y69291D02*
X48210D01*
X61063D02*
X63976D01*
X50962Y79393D02*
X61063Y69291D01*
X38685Y79393D02*
X50962D01*
X74803Y35171D02*
X77667Y32307D01*
X91142D01*
X188878Y71555D02*
X190945D01*
X183465Y66142D02*
X188878Y71555D01*
X91142Y109393D02*
X118898D01*
X33465Y104173D02*
X39528Y110236D01*
X52339Y89393D02*
X59055Y82677D01*
X43465Y104173D02*
X63215D01*
X50998Y84173D02*
X59055Y76116D01*
X53858Y94173D02*
X58268Y89764D01*
X49606Y19291D02*
Y28031D01*
X61023Y7874D02*
X63976D01*
X49606Y19291D02*
X61023Y7874D01*
X38685Y99393D02*
X54544D01*
X39528Y110236D02*
X63976D01*
X33465Y64173D02*
X38583Y69291D01*
X33465Y44173D02*
X38111Y48819D01*
X33465Y34173D02*
X38661Y39370D01*
X45276D01*
X43465Y34173D02*
X49606Y28031D01*
X33465Y54173D02*
X38346Y59055D01*
X33465Y84173D02*
X38685Y89393D01*
X52339D01*
X33465Y74173D02*
X38685Y79393D01*
X43465Y84173D02*
X50998D01*
X43465Y94173D02*
X53858D01*
X33465D02*
X38685Y99393D01*
X57349Y96588D02*
X63976D01*
X54544Y99393D02*
X57349Y96588D01*
X63845Y62598D02*
X63976Y62467D01*
X63976Y89764D02*
X63976Y89764D01*
X58268Y89764D02*
X63976D01*
X59055Y76116D02*
X63976D01*
X63215Y104173D02*
X63976Y103412D01*
X63714Y82677D02*
X63976Y82940D01*
X59055Y82677D02*
X63714D01*
X63976Y110236D02*
X63976Y110236D01*
X129331Y42307D02*
X131811D01*
X173953Y115354D02*
X177102Y112205D01*
X185256Y38012D02*
X187402D01*
X81316Y22307D02*
X91142D01*
X74803Y21523D02*
X80532D01*
X81316Y22307D01*
X74803Y28347D02*
X80275D01*
X79492Y37307D02*
X91142D01*
X74803Y41995D02*
X79492Y37307D01*
X77411Y17307D02*
X91142D01*
X83140Y47307D02*
X91142D01*
X74803Y55643D02*
X83140Y47307D01*
X74803Y48819D02*
X81316Y42307D01*
X79235Y12307D02*
X91142D01*
X80275Y28347D02*
X81316Y27307D01*
X91142D01*
X81316Y42307D02*
X91142D01*
X74803Y7875D02*
X79235Y12307D01*
X74803Y14699D02*
X77411Y17307D01*
X189526Y101555D02*
X190945D01*
X182691Y108390D02*
X189526Y101555D01*
X188107Y94393D02*
X190945Y91555D01*
X179390Y51968D02*
X188976Y61555D01*
X190945D01*
X175217Y37795D02*
X188976Y51555D01*
X190945D01*
X187402Y38012D02*
X190945Y41555D01*
X129331Y64393D02*
X129945Y63779D01*
X129331Y69393D02*
X129622Y69685D01*
X129331Y94393D02*
X134646D01*
X82378D02*
X91142D01*
X80183Y96588D02*
X82378Y94393D01*
X74803Y96588D02*
X80183D01*
X81729Y69393D02*
X91142D01*
X74803Y62467D02*
X81729Y69393D01*
X129331Y99393D02*
X131972D01*
X84646Y104173D02*
X90922D01*
X78582Y110236D02*
X84646Y104173D01*
X74803Y110236D02*
X78582D01*
X74803Y89764D02*
X90771D01*
X78081Y79393D02*
X91142D01*
X74803Y76116D02*
X78081Y79393D01*
X74803Y82940D02*
X75336D01*
X79905Y74393D02*
X91142D01*
X74803Y69292D02*
X79905Y74393D01*
X83152Y99393D02*
X91142D01*
X74803Y103412D02*
X79133D01*
X83152Y99393D01*
X90922Y104173D02*
X91142Y104393D01*
X90771Y89764D02*
X91142Y89393D01*
X150689Y5905D02*
X158464D01*
X150591Y12992D02*
X158366D01*
X150591Y27165D02*
X158366D01*
X150591Y34252D02*
X158366D01*
X150591Y41338D02*
X158366D01*
X150591Y48425D02*
X158366D01*
X150591Y55512D02*
X158366D01*
X150591Y62598D02*
X158366D01*
X150591Y69685D02*
X158366D01*
X150591Y76771D02*
X158366D01*
X150591Y83858D02*
X158366D01*
X150591Y90945D02*
X158366D01*
X150591Y98031D02*
X158366D01*
X150591Y105118D02*
X158366D01*
X150689Y112205D02*
X158464D01*
X74803Y28347D02*
X74803Y28347D01*
X122047Y104491D02*
X122145Y104393D01*
X129331D01*
X69882Y7874D02*
X74803D01*
X74803Y7875D01*
X69882Y14698D02*
X74803D01*
X74803Y14699D01*
X69882Y21522D02*
X74803D01*
X74803Y21523D01*
X69882Y28347D02*
X74803D01*
X69882Y35171D02*
X74803D01*
X74803Y35171D01*
X69882Y41995D02*
X74803D01*
X74803Y41995D01*
X69882Y48819D02*
X74803D01*
X74803Y48819D01*
X69882Y55643D02*
X74803D01*
X74803Y55643D01*
X69882Y62467D02*
X74803D01*
X74803Y62467D01*
X69882Y69291D02*
X74803D01*
X74803Y69292D01*
X69882Y76116D02*
X74803D01*
X74803Y76116D01*
X69882Y82940D02*
X74803D01*
X74803Y82940D01*
X69882Y89764D02*
X74803D01*
X74803Y89764D01*
X69882Y96588D02*
X74803D01*
X74803Y96588D01*
X69882Y103412D02*
X74803D01*
X74803Y103412D01*
X74803Y110236D02*
X74803Y110236D01*
X69882Y110236D02*
X74803D01*
X122047Y47307D02*
X129331D01*
X91142Y52307D02*
X129331D01*
X91142Y7307D02*
X98252D01*
X98425Y7480D01*
D22*
X188976Y41555D02*
D03*
Y101555D02*
D03*
Y91555D02*
D03*
Y81555D02*
D03*
Y51555D02*
D03*
Y61555D02*
D03*
Y11555D02*
D03*
Y21555D02*
D03*
Y71555D02*
D03*
Y31555D02*
D03*
D23*
X91142Y52307D02*
D03*
Y47307D02*
D03*
Y42307D02*
D03*
Y37307D02*
D03*
Y32307D02*
D03*
Y27307D02*
D03*
Y22307D02*
D03*
Y17307D02*
D03*
Y12307D02*
D03*
Y7307D02*
D03*
X129331Y52307D02*
D03*
Y47307D02*
D03*
Y42307D02*
D03*
Y37307D02*
D03*
Y32307D02*
D03*
Y27307D02*
D03*
Y22307D02*
D03*
Y17307D02*
D03*
Y12307D02*
D03*
Y7307D02*
D03*
X91142Y109393D02*
D03*
Y104393D02*
D03*
Y99393D02*
D03*
Y94393D02*
D03*
Y89393D02*
D03*
Y84393D02*
D03*
Y79393D02*
D03*
Y74393D02*
D03*
Y69393D02*
D03*
Y64393D02*
D03*
X129331Y109393D02*
D03*
Y104393D02*
D03*
Y99393D02*
D03*
Y94393D02*
D03*
Y89393D02*
D03*
Y84393D02*
D03*
Y79393D02*
D03*
Y74393D02*
D03*
Y69393D02*
D03*
Y64393D02*
D03*
D24*
X157873Y5905D02*
D03*
X164960D02*
D03*
Y112205D02*
D03*
X157873D02*
D03*
X157776Y55512D02*
D03*
X164862D02*
D03*
Y105118D02*
D03*
X157776D02*
D03*
Y48425D02*
D03*
X164862D02*
D03*
Y98031D02*
D03*
X157776D02*
D03*
Y41338D02*
D03*
X164862D02*
D03*
Y90945D02*
D03*
X157776D02*
D03*
Y34252D02*
D03*
X164862D02*
D03*
Y83858D02*
D03*
X157776D02*
D03*
Y27165D02*
D03*
X164862D02*
D03*
Y76771D02*
D03*
X157776D02*
D03*
Y20079D02*
D03*
X164862D02*
D03*
Y69685D02*
D03*
X157776D02*
D03*
Y12992D02*
D03*
X164862D02*
D03*
Y62598D02*
D03*
X157776D02*
D03*
D25*
X144192Y5905D02*
D03*
X151279D02*
D03*
X135868Y58052D02*
D03*
X128781D02*
D03*
Y113624D02*
D03*
X135868D02*
D03*
X151279Y112205D02*
D03*
X144192D02*
D03*
X144095Y105118D02*
D03*
X151181D02*
D03*
Y98031D02*
D03*
X144095D02*
D03*
Y90945D02*
D03*
X151181D02*
D03*
Y83858D02*
D03*
X144095D02*
D03*
Y76771D02*
D03*
X151181D02*
D03*
Y69685D02*
D03*
X144095D02*
D03*
Y62598D02*
D03*
X151181D02*
D03*
Y55512D02*
D03*
X144095D02*
D03*
Y48425D02*
D03*
X151181D02*
D03*
Y41338D02*
D03*
X144095D02*
D03*
Y34252D02*
D03*
X151181D02*
D03*
Y27165D02*
D03*
X144095D02*
D03*
Y20079D02*
D03*
X151181D02*
D03*
Y12992D02*
D03*
X144095D02*
D03*
X70472Y7874D02*
D03*
X63386D02*
D03*
Y14698D02*
D03*
X70472D02*
D03*
Y21522D02*
D03*
X63386D02*
D03*
Y28347D02*
D03*
X70472D02*
D03*
Y35171D02*
D03*
X63386D02*
D03*
Y41995D02*
D03*
X70472D02*
D03*
Y48819D02*
D03*
X63386D02*
D03*
Y55643D02*
D03*
X70472D02*
D03*
Y62467D02*
D03*
X63386D02*
D03*
Y69291D02*
D03*
X70472D02*
D03*
Y76116D02*
D03*
X63386D02*
D03*
Y82940D02*
D03*
X70472D02*
D03*
Y89764D02*
D03*
X63386D02*
D03*
Y96588D02*
D03*
X70472D02*
D03*
Y103412D02*
D03*
X63386D02*
D03*
Y110236D02*
D03*
X70472D02*
D03*
D26*
X182275Y21380D02*
X182451Y21555D01*
X188721Y11555D02*
X190945D01*
X179724Y2559D02*
X188721Y11555D01*
X55079Y2559D02*
X179724D01*
X43465Y14173D02*
X55079Y2559D01*
X129331Y109393D02*
Y113074D01*
X128781Y113624D02*
X129331Y113074D01*
Y52307D02*
Y57502D01*
X128781Y58052D02*
X129331Y57502D01*
D27*
X182451Y21555D02*
X188976D01*
D28*
X33465Y34173D02*
D03*
Y14173D02*
D03*
X43465Y24173D02*
D03*
X33465D02*
D03*
X43465Y34173D02*
D03*
Y44173D02*
D03*
X33465D02*
D03*
Y54173D02*
D03*
Y64173D02*
D03*
X43465D02*
D03*
Y54173D02*
D03*
Y74173D02*
D03*
X33465D02*
D03*
Y84173D02*
D03*
X43465D02*
D03*
X33465Y94173D02*
D03*
X43465D02*
D03*
X33465Y104173D02*
D03*
X43465D02*
D03*
D29*
Y14173D02*
D03*
D30*
X90551Y59055D02*
D03*
X98425Y84646D02*
D03*
X98425Y27612D02*
D03*
X98425Y104331D02*
D03*
Y47307D02*
D03*
X182275Y21380D02*
D03*
X172047Y30709D02*
D03*
Y16535D02*
D03*
X98425Y64393D02*
D03*
X122047Y59055D02*
D03*
X190945Y114212D02*
D03*
X168504Y5867D02*
D03*
Y12844D02*
D03*
Y20103D02*
D03*
Y27165D02*
D03*
Y34252D02*
D03*
Y41380D02*
D03*
Y48447D02*
D03*
Y55493D02*
D03*
Y62622D02*
D03*
Y69685D02*
D03*
Y76771D02*
D03*
Y83943D02*
D03*
Y90945D02*
D03*
Y98031D02*
D03*
Y105118D02*
D03*
Y112205D02*
D03*
X139827Y113583D02*
D03*
X31496Y112205D02*
D03*
X177102Y112205D02*
D03*
Y44882D02*
D03*
Y59055D02*
D03*
Y73228D02*
D03*
Y87401D02*
D03*
Y101555D02*
D03*
X122047Y104491D02*
D03*
X74803Y7875D02*
D03*
Y14699D02*
D03*
Y21523D02*
D03*
Y28347D02*
D03*
Y35171D02*
D03*
Y41995D02*
D03*
Y48819D02*
D03*
Y55643D02*
D03*
Y62467D02*
D03*
Y69292D02*
D03*
Y76116D02*
D03*
Y82940D02*
D03*
Y89764D02*
D03*
Y96588D02*
D03*
Y103412D02*
D03*
Y110236D02*
D03*
X122047Y47307D02*
D03*
X98425Y7480D02*
D03*
M02*
