G04*
G04 #@! TF.GenerationSoftware,Altium Limited,Altium Designer,19.1.5 (86)*
G04*
G04 Layer_Color=16711935*
%FSLAX25Y25*%
%MOIN*%
G70*
G01*
G75*
%ADD14C,0.00591*%
%ADD20R,0.08346X0.08346*%
%ADD23R,0.04134X0.04134*%
%ADD24C,0.07087*%
%ADD25R,0.07087X0.07087*%
%ADD35R,0.05315X0.03740*%
%ADD36R,0.05709X0.03347*%
%ADD37R,0.06496X0.08465*%
%ADD38R,0.15551X0.08465*%
%ADD39R,0.08465X0.08465*%
D14*
X0Y0D02*
X196850D01*
X0Y118110D02*
X196850D01*
X0Y0D02*
Y118110D01*
X196850Y0D02*
Y118110D01*
D20*
X188976Y106555D02*
D03*
Y86555D02*
D03*
Y76555D02*
D03*
Y36555D02*
D03*
Y56555D02*
D03*
Y46555D02*
D03*
Y26555D02*
D03*
Y16555D02*
D03*
Y96555D02*
D03*
Y66555D02*
D03*
D23*
X86614Y110236D02*
D03*
X79527D02*
D03*
X86614Y7874D02*
D03*
X79527D02*
D03*
Y14698D02*
D03*
X86614D02*
D03*
Y21523D02*
D03*
X79527D02*
D03*
Y28347D02*
D03*
X86614D02*
D03*
Y35171D02*
D03*
X79527D02*
D03*
Y41995D02*
D03*
X86614D02*
D03*
Y48819D02*
D03*
X79527D02*
D03*
Y55643D02*
D03*
X86614D02*
D03*
Y62467D02*
D03*
X79527D02*
D03*
Y69292D02*
D03*
X86614D02*
D03*
Y76116D02*
D03*
X79527D02*
D03*
Y82940D02*
D03*
X86614D02*
D03*
Y89764D02*
D03*
X79527D02*
D03*
Y96588D02*
D03*
X86614D02*
D03*
Y103412D02*
D03*
X79527D02*
D03*
D24*
X43465Y104173D02*
D03*
X33465D02*
D03*
X43465Y94173D02*
D03*
X33465D02*
D03*
X43465Y84173D02*
D03*
X33465D02*
D03*
Y74173D02*
D03*
X43465D02*
D03*
Y54173D02*
D03*
Y64173D02*
D03*
X33465D02*
D03*
Y54173D02*
D03*
Y44173D02*
D03*
X43465D02*
D03*
Y34173D02*
D03*
X33465Y24173D02*
D03*
X43465D02*
D03*
X33465Y14173D02*
D03*
Y34173D02*
D03*
D25*
X43465Y14173D02*
D03*
D35*
X69291Y15355D02*
D03*
Y7874D02*
D03*
X60630Y11614D02*
D03*
X69291Y110433D02*
D03*
Y102953D02*
D03*
X60630Y106693D02*
D03*
Y92942D02*
D03*
X69291Y89201D02*
D03*
Y96682D02*
D03*
Y83127D02*
D03*
Y75647D02*
D03*
X60630Y79387D02*
D03*
Y65833D02*
D03*
X69291Y62092D02*
D03*
Y69573D02*
D03*
Y56018D02*
D03*
Y48538D02*
D03*
X60630Y52278D02*
D03*
Y38723D02*
D03*
X69291Y34983D02*
D03*
Y42464D02*
D03*
Y28909D02*
D03*
Y21429D02*
D03*
X60630Y25169D02*
D03*
D36*
X139764Y66528D02*
D03*
Y59048D02*
D03*
X148819Y66528D02*
D03*
Y59048D02*
D03*
D37*
X130709Y51193D02*
D03*
X139764D02*
D03*
X148819D02*
D03*
D38*
X139764Y26390D02*
D03*
D39*
X161417Y59055D02*
D03*
M02*
