M48
;Layer_Color=9474304
;FILE_FORMAT=2:5
INCH,LZ
;TYPE=PLATED
T1F00S00C0.01181
T2F00S00C0.03937
%
T01
X0074803Y0007875
Y0014699
Y0021523
X0098425Y000748
X0168504Y0005867
Y0012844
X0172047Y0016535
X0168504Y0020103
X0182275Y002138
X0168504Y0027165
Y0034252
X0172047Y0030709
X0168504Y004138
Y0048447
Y0055493
Y0062622
Y0069685
Y0076771
Y0083943
Y0090945
Y0098031
Y0105118
Y0112205
X0177102Y0112205
Y0101555
Y0087401
Y0073228
Y0059055
Y0044882
X0122047Y0047307
Y0059055
X0098425Y0064393
X0090551Y0059055
X0074803Y0055643
Y0048819
Y0041995
Y0035171
Y0028347
X0098425Y0027612
X0098425Y0047307
Y0084646
Y0104331
X0122047Y0104491
X0139827Y0113583
X0190945Y0114212
X0074803Y0110236
Y0103412
Y0096588
Y0089764
Y008294
Y0076116
Y0069292
Y0062467
X0031496Y0112205
T02
X0033465Y0014173
Y0024173
X0043465
Y0014173
Y0034173
Y0044173
Y0054173
Y0064173
Y0074173
Y0084173
Y0094173
Y0104173
X0033465
Y0094173
Y0084173
Y0074173
Y0064173
Y0054173
Y0044173
Y0034173
M30
